<?xml version="1.0" standalone="no"?>
<!DOCTYPE svg PUBLIC "-//W3C//DTD SVG 20010904//EN"
 "http://www.w3.org/TR/2001/REC-SVG-20010904/DTD/svg10.dtd">
<svg version="1.0" xmlns="http://www.w3.org/2000/svg"
 width="256.000000pt" height="256.000000pt" viewBox="0 0 256.000000 256.000000"
 preserveAspectRatio="xMidYMid meet">
<metadata>
Created by potrace 1.11, written by Peter Selinger 2001-2013
</metadata>
<g transform="translate(0.000000,256.000000) scale(0.100000,-0.100000)"
fill="#000000" stroke="none">
<path d="M1135 2510 c3 -6 -2 -10 -12 -10 -19 0 -86 -40 -68 -40 6 0 4 -4 -3
-9 -7 -4 -14 -18 -15 -29 -1 -12 -6 -22 -12 -22 -5 0 -3 -5 5 -10 8 -5 10 -10
5 -10 -12 0 -14 -638 -2 -657 4 -6 4 -14 -1 -17 -9 -6 -8 -118 1 -133 4 -7 0
-10 -10 -8 -10 2 -22 4 -26 4 -5 1 -5 6 -2 11 3 6 -5 10 -19 10 -14 0 -28 5
-31 10 -5 8 -11 7 -21 -1 -11 -9 -14 -8 -14 2 0 9 -3 10 -8 4 -4 -6 -20 -12
-37 -14 -16 -1 -32 -6 -35 -11 -3 -4 -15 -11 -28 -15 -13 -4 -21 -9 -18 -12 2
-3 -4 -14 -15 -26 -10 -11 -19 -28 -20 -36 0 -9 -3 -25 -5 -36 -7 -26 -8 -170
-2 -181 2 -5 3 -15 2 -21 -1 -7 -2 -17 -3 -23 0 -5 -7 -9 -13 -7 -7 1 -12 -3
-11 -9 1 -7 -6 -10 -17 -7 -11 3 -27 0 -35 -7 -8 -7 -15 -9 -15 -5 0 16 -60
-55 -66 -79 -3 -14 -10 -29 -16 -32 -5 -3 -4 -12 4 -22 8 -9 8 -13 2 -9 -13 7
-27 -17 -16 -28 3 -3 7 -18 7 -33 0 -15 5 -33 9 -41 6 -10 5 -12 -2 -7 -7 4
-12 2 -12 -3 0 -6 5 -11 11 -11 6 0 9 -6 6 -14 -3 -8 -3 -17 1 -20 6 -7 12
-30 14 -53 1 -7 5 -13 10 -13 4 0 8 -9 8 -20 0 -11 5 -20 10 -20 6 0 9 -3 9
-8 -3 -17 2 -32 16 -45 8 -8 16 -21 17 -28 5 -21 89 -90 101 -83 7 4 9 4 5 -1
-10 -11 29 -38 42 -30 6 4 9 1 8 -5 -2 -7 5 -14 15 -15 10 -2 26 -13 36 -24
10 -11 21 -18 25 -14 3 3 6 1 6 -6 0 -7 4 -10 9 -6 5 3 13 0 17 -6 4 -8 3 -9
-4 -5 -7 4 -12 2 -12 -3 0 -6 4 -11 9 -11 10 0 9 -19 -1 -35 -3 -6 -9 -31 -13
-55 -3 -25 -9 -61 -11 -80 -3 -19 -8 -48 -11 -65 -2 -16 -6 -36 -7 -44 -3 -16
28 -51 44 -51 6 0 10 -3 10 -7 0 -10 49 -33 67 -33 8 0 16 -7 19 -15 4 -9 11
-15 18 -14 15 3 49 -12 58 -25 5 -7 8 -6 8 3 0 11 3 11 17 0 15 -12 16 -12 8
1 -8 13 -6 13 8 1 9 -7 32 -13 52 -13 19 0 33 -3 30 -7 -2 -4 2 -8 10 -8 8 0
12 3 10 7 -2 4 2 7 10 7 8 0 12 -3 10 -6 -2 -4 19 -7 46 -7 28 0 49 4 49 10 0
7 3 8 8 1 10 -14 45 -16 54 -2 6 9 8 8 8 -2 0 -10 3 -11 14 -2 11 9 15 9 19
-1 4 -10 7 -11 18 -1 7 7 23 13 35 13 13 0 26 5 29 10 4 7 13 7 24 0 12 -6 22
-5 28 1 6 6 17 12 24 13 8 2 25 8 39 13 14 6 29 11 34 11 5 0 13 7 18 16 5 9
14 16 19 16 6 0 26 16 45 36 19 20 34 33 34 28 0 -5 7 4 15 20 15 28 16 68 2
82 -3 4 -2 16 4 27 8 14 8 18 0 13 -10 -7 -16 31 -12 76 1 10 -2 18 -7 18 -5
0 -9 14 -10 31 0 17 -7 38 -14 47 -10 12 -10 14 0 8 13 -8 12 19 -3 57 -4 10
-3 17 4 17 6 0 11 8 11 18 0 10 5 23 10 28 10 10 21 44 22 72 1 6 5 12 10 12
5 0 6 4 3 10 -3 5 1 24 10 41 9 17 13 29 7 26 -5 -4 -9 0 -9 8 0 8 4 12 8 10
6 -4 25 113 22 143 0 6 4 12 11 12 6 0 4 5 -4 10 -12 8 -12 10 -1 10 11 0 11
3 0 17 -10 11 -10 14 -1 9 6 -4 12 -2 12 3 0 6 -6 11 -12 11 -8 0 -9 3 -3 8 9
6 11 27 5 42 -6 17 -7 39 -1 36 9 -6 7 37 -3 53 -5 8 -4 16 4 21 8 5 7 9 -5
14 -15 5 -15 9 -4 23 10 12 10 14 2 9 -9 -5 -13 1 -13 21 0 16 -6 35 -12 42
-11 11 -10 12 0 6 23 -12 -26 73 -60 105 -17 17 -40 30 -50 30 -11 0 -16 5
-13 10 4 6 3 10 -2 9 -4 -2 -30 1 -58 6 -27 5 -53 8 -57 7 -5 -1 -8 4 -8 11 0
15 -36 48 -44 40 -3 -4 -6 -1 -6 5 0 10 -69 28 -86 22 -4 -1 -11 4 -15 12 -6
9 -9 9 -9 1 0 -6 -8 -10 -19 -8 -10 2 -30 -3 -45 -10 -15 -8 -26 -10 -26 -4 0
6 -3 8 -8 5 -6 -4 -13 138 -15 306 0 26 -3 45 -7 43 -4 -2 -7 2 -7 10 0 8 4
12 9 9 10 -6 6 26 -6 45 -6 9 -5 12 1 8 6 -4 11 4 11 18 0 14 -3 23 -7 21 -4
-3 -7 4 -7 14 0 10 3 17 7 15 8 -6 5 42 -4 51 -12 12 -8 26 6 18 9 -6 9 -4 -1
8 -10 13 -10 17 0 21 10 4 10 6 -1 6 -11 1 -11 4 0 18 11 13 11 15 1 9 -16
-10 -13 25 3 36 7 5 7 8 0 8 -6 0 -12 28 -14 63 -3 62 -8 112 -11 112 -1 0 -3
8 -5 18 -6 34 -69 85 -97 79 -5 -1 -8 3 -8 8 0 6 -5 10 -11 10 -5 0 -7 -4 -4
-10 4 -7 -3 -7 -20 0 -17 7 -24 7 -20 0z"/>
</g>
</svg>
